#!OML:ASF F:\VICON\USERDATA\INSTALL\rory3\rory3.ASF
:FULLY-SPECIFIED
:DEGREES
308
root 1.80383 17.4684 33.5596 -158.193 -21.6363 -170.535
lowerback -12.5297 3.1428 2.53181
upperback -7.9233 3.0196 1.32992
thorax -1.22055 1.06388 0.309704
lowerneck -13.4028 0.201505 -0.965945
upperneck 39.7583 -5.56243 4.5487
head 16.8468 -3.14823 0.81404
rclavicle 3.47128e-014 -6.36111e-015
rhumerus -122.985 -60.0155 80.0311
rradius 10.8402
rwrist 86.6784
rhand -15.9145 16.4115
rfingers 7.12502
rthumb 10.2827 -13.3171
lclavicle 3.47128e-014 -6.36111e-015
lhumerus -26.8815 25.974 35.8481
lradius 17.2984
lwrist -44.5935
lhand -4.41467 21.7751
lfingers 7.12502
lthumb 21.3557 50.6183
rfemur -8.83698 7.98751 27.6471
rtibia 29.0112
rfoot 29.5891 -30.3174
rtoes 36.7181
lfemur -33.4301 5.59179 -21.8621
ltibia 29.4585
lfoot -60.4292 30.2604
ltoes 23.0954
309
root 1.81139 17.4629 33.525 -158.142 -21.2231 -170.989
lowerback -12.2552 3.10022 1.90615
upperback -7.88237 3.0587 1.22654
thorax -1.35139 1.11356 0.544797
lowerneck -13.2847 0.161344 -0.765499
upperneck 39.6884 -5.61769 4.38615
head 16.7682 -3.16616 0.697279
rclavicle 6.62201e-014 2.26615e-014
rhumerus -120.421 -60.898 77.6833
rradius 10.9004
rwrist 83.3326
rhand -16.6128 18.5804
rfingers 7.12502
rthumb 9.60892 -11.1805
lclavicle 6.62201e-014 2.26615e-014
lhumerus -25.8989 25.7312 36.0714
lradius 17.3751
lwrist -44.1013
lhand -6.29637 21.9502
lfingers 7.12502
lthumb 19.5474 50.9876
rfemur -9.21192 7.66445 27.193
rtibia 29.9695
rfoot 27.1213 -32.4145
rtoes 40.2979
lfemur -33.1296 5.33338 -22.199
ltibia 29.5268
lfoot -61.1127 30.1487
ltoes 23.3639
310
root 1.82532 17.4513 33.4827 -158.629 -21.2376 -171.421
lowerback -11.7059 2.74684 1.1475
upperback -7.58628 2.73654 1.40816
thorax -1.38266 1.01277 1.10485
lowerneck -13.2305 0.173547 -0.888309
upperneck 39.6338 -5.51889 4.29428
head 16.7172 -3.15845 0.69703
rclavicle -2.31336e-014 1.19271e-014
rhumerus -122.597 -60.9944 80.7211
rradius 10.9702
rwrist 82.6728
rhand -17.1908 20.3583
rfingers 7.12502
rthumb 9.0512 -9.42747
lclavicle -2.31336e-014 1.19271e-014
lhumerus -25.2062 25.9399 36.2458
lradius 17.3655
lwrist -43.7085
lhand -8.29322 22.2273
lfingers 7.12502
lthumb 17.6267 51.4483
rfemur -9.05588 6.93618 27.0624
rtibia 31.1084
rfoot 25.4703 -32.9086
rtoes 40.6474
lfemur -32.2745 5.2004 -22.4019
ltibia 29.6189
lfoot -61.1266 30.1764
ltoes 23.0697
311
root 1.84129 17.4394 33.4567 -158.641 -20.6328 -171.248
lowerback -10.7986 2.91348 1.46497
upperback -7.98315 2.93814 1.09287
thorax -2.25849 1.08024 0.579414
lowerneck -13.1239 0.224026 -0.727103
upperneck 39.8815 -5.77281 4.60751
head 16.8531 -3.23437 0.753188
rclavicle 2.10463e-014 3.02153e-014
rhumerus -123.215 -60.3791 81.5673
rradius 11.1782
rwrist 81.5528
rhand -18.1873 21.0653
rfingers 7.12502
rthumb 8.08953 -8.7599
lclavicle 2.10463e-014 3.02153e-014
lhumerus -24.4115 24.5108 36.0617
lradius 17.5542
lwrist -42.4075
lhand -10.0418 22.1286
lfingers 7.12502
lthumb 15.9434 51.4924
rfemur -9.96128 6.62915 27.1326
rtibia 32.5185
rfoot 24.3989 -32.2253
rtoes 38.3078
lfemur -32.2729 5.08589 -22.1525
ltibia 29.7877
lfoot -62.0823 30.0691
ltoes 23.7725
312
root 1.83995 17.4265 33.4448 -158.376 -20.1066 -171.325
lowerback -10.8044 2.66111 1.25469
upperback -7.72949 2.63982 1.38656
thorax -2.0125 0.957958 0.978315
lowerneck -13.7455 0.442059 -1.00844
upperneck 39.8274 -5.16552 4.42251
head 16.9459 -3.01171 0.828428
rclavicle 4.66895e-014 -4.37326e-015
rhumerus -125.293 -61.4191 83.9832
rradius 11.2116
rwrist 80.2579
rhand -20.1367 20.514
rfingers 7.12502
rthumb 6.20783 -9.37503
lclavicle 4.66895e-014 -4.37326e-015
lhumerus -24.2634 25.462 35.8872
lradius 17.6855
lwrist -41.8825
lhand -11.9586 22.1099
lfingers 7.12502
lthumb 14.0969 51.6118
rfemur -11.2392 5.77282 26.818
rtibia 34.1261
rfoot 23.641 -30.3564
rtoes 34.525
lfemur -32.5252 4.98633 -22.3062
ltibia 30.0069
lfoot -62.9947 29.7555
ltoes 24.0947
313
root 1.85258 17.4166 33.4296 -158.222 -19.4107 -171.028
lowerback -10.6331 2.22951 1.13213
upperback -7.3747 2.10095 2.05017
thorax -1.75946 0.719518 1.68527
lowerneck -15.1248 0.817947 -1.63133
upperneck 39.9785 -4.10389 4.11244
head 17.3261 -2.6486 0.992119
rclavicle 7.10655e-015 -7.95139e-015
rhumerus -132.552 -61.7226 91.9098
rradius 11.1327
rwrist 82.0775
rhand -22.4567 20.5781
rfingers 7.12502
rthumb 3.96779 -9.36472
lclavicle 7.10655e-015 -7.95139e-015
lhumerus -24.8555 27.6205 35.2042
lradius 17.7661
lwrist -41.8692
lhand -13.8154 22.2216
lfingers 7.12502
lthumb 12.3071 51.8394
rfemur -12.6848 5.43849 26.9071
rtibia 35.9399
rfoot 21.2491 -29.0619
rtoes 31.8195
lfemur -32.8452 4.90116 -21.996
ltibia 30.3444
lfoot -64.3248 29.1819
ltoes 25.0138
314
root 1.85994 17.4065 33.4055 -158.08 -19.0859 -171.193
lowerback -10.636 2.72274 0.916714
upperback -7.79566 2.74318 1.47476
thorax -2.19639 1.01956 1.26038
lowerneck -13.2752 0.444617 -0.721483
upperneck 39.4691 -5.11724 4.19926
head 16.6115 -2.99017 0.692788
rclavicle -1.98785e-014 -5.4467e-014
rhumerus -122.16 -62.9736 80.9664
rradius 11.2385
rwrist 75.0093
rhand -23.7301 20.9442
rfingers 7.12502
rthumb 2.73804 -9.01802
lclavicle -1.98785e-014 -5.4467e-014
lhumerus -22.9801 25.5248 36.1467
lradius 17.8003
lwrist -40.9934
lhand -15.6943 22.3281
lfingers 7.12502
lthumb 10.4951 52.0461
rfemur -13.9333 4.79919 26.7531
rtibia 37.8353
rfoot 17.8244 -28.9567
rtoes 30.9649
lfemur -32.9149 4.7966 -22.0996
ltibia 30.5947
lfoot -64.9201 28.5788
ltoes 25.9093
315
root 1.88555 17.3956 33.3818 -158.068 -17.971 -170.999
lowerback -10.3981 2.55169 0.441635
upperback -7.33103 2.60801 1.9127
thorax -1.87997 1.00406 1.9655
lowerneck -14.687 0.683072 -0.952436
upperneck 39.5703 -4.39442 3.88346
head 16.9811 -2.69422 0.718034
rclavicle -4.00054e-014 -1.82882e-014
rhumerus -125.037 -64.2763 83.9234
rradius 11.2348
rwrist 74.2195
rhand -24.9716 22.0405
rfingers 7.12502
rthumb 1.53899 -7.93366
lclavicle -4.00054e-014 -1.82882e-014
lhumerus -22.8521 27.3231 35.9228
lradius 17.7792
lwrist -41.0142
lhand -17.7116 21.4875
lfingers 7.12502
lthumb 8.54861 51.2945
rfemur -15.2782 4.95285 26.7032
rtibia 39.697
rfoot 15.2914 -28.4892
rtoes 29.1362
lfemur -32.9085 4.96061 -21.9134
ltibia 30.8886
lfoot -66.1635 27.9176
ltoes 26.8959
316
root 1.90113 17.3844 33.3581 -158.037 -17.3877 -171.224
lowerback -10.0015 2.03664 -0.0449747
upperback -6.84336 2.0255 2.28805
thorax -1.60021 0.763076 2.57156
lowerneck -16.1153 1.05294 -1.35474
upperneck 39.6022 -3.41457 3.67824
head 17.3185 -2.31065 0.881711
rclavicle 3.35946e-014 -1.66979e-014
rhumerus -132.861 -64.3493 92.0165
rradius 11.203
rwrist 76.1462
rhand -26.265 23.2884
rfingers 7.12502
rthumb 0.289808 -6.69113
lclavicle 3.35946e-014 -1.66979e-014
lhumerus -23.2385 29.574 35.2019
lradius 17.7731
lwrist -41.3067
lhand -19.7219 20.0087
lfingers 7.12502
lthumb 6.60827 49.8856
rfemur -16.5136 4.60371 26.432
rtibia 41.489
rfoot 12.8873 -28.0354
rtoes 26.8249
lfemur -32.8205 4.98728 -22.1271
ltibia 31.1489
lfoot -66.7229 27.8248
ltoes 26.66
